# xmcd
#
# Track frame offsets: 
#        150
#        19059
#        31940
#        52834
#        67031
#        85442
#        92881
#        106690
#        127124
#        143314
#        157823
#        174758
#        188338
#        196472
#        212642
#        228293
#        245266
#        258485
#        272687
#        288074
#        299009
#        319074
#        338672
#
# Disc length: 4571 seconds
#
# Revision: 0
# Processed by: cddbd v1.5.2PL0 Copyright (c) Steve Scherf et al.
# Submitted via: ExactAudioCopyFreeDBPlugin 1.0
#
DISCID=3711d917
DTITLE=Pino Daniele - Nero a Metà
DYEAR=2014
DGENRE=Blues
TTITLE0=I say i' stò ccà
TTITLE1=Musica musica
TTITLE2=Quanno chiove
TTITLE3=Puozze passà nu guaio
TTITLE4=Voglio di più
TTITLE5=Appocundria
TTITLE6=A me me piace ò blues
TTITLE7=E sò cuntento 'e stà
TTITLE8=Nun me scuccià
TTITLE9=Alleria
TTITLE10=A testa in giù
TTITLE11=Sotto 'o sole
TTITLE12=Tira 'A Carretta
TTITLE13=Voglio di più (Demo piano e voce)
TTITLE14=Puozze Passà Nu Guaio (Versione Alternativa)
TTITLE15=A Testa In Giù (Demo)
TTITLE16=Musica musica (Demo)
TTITLE17=Alleria (Demo)
TTITLE18=Nun me scuccià (Demo)
TTITLE19=Appocundria (Demo)
TTITLE20=E sò cuntento 'e stà (Versione Alternativa)
TTITLE21=Sotto 'o sole (Versione Alternativa)
TTITLE22=Hotel Regina (Strumentale)
EXTD=
EXTT0=
EXTT1=
EXTT2=
EXTT3=
EXTT4=
EXTT5=
EXTT6=
EXTT7=
EXTT8=
EXTT9=
EXTT10=
EXTT11=
EXTT12=
EXTT13=
EXTT14=
EXTT15=
EXTT16=
EXTT17=
EXTT18=
EXTT19=
EXTT20=
EXTT21=
EXTT22=
PLAYORDER=
